<svg width="22" height="22" viewBox="0 0 22 22" fill="none" xmlns="http://www.w3.org/2000/svg">
<path d="M10.8574 0C6.52504 0 3 3.37133 3 7.51367C3 9.48638 3.89919 12.1098 5.67251 15.3112C7.09667 17.8816 8.74428 20.2059 9.60123 21.3624C9.74603 21.56 9.93537 21.7207 10.1539 21.8315C10.3724 21.9423 10.6139 22 10.8589 22C11.1039 22 11.3454 21.9423 11.5639 21.8315C11.7825 21.7207 11.9718 21.56 12.1166 21.3624C12.9721 20.2059 14.6211 17.8816 16.0453 15.3112C17.8157 12.1108 18.7149 9.48736 18.7149 7.51367C18.7149 3.37133 15.1898 0 10.8574 0ZM10.8574 11.0004C10.2358 11.0004 9.62815 10.8161 9.11129 10.4707C8.59443 10.1254 8.19159 9.6345 7.95371 9.0602C7.71582 8.4859 7.65358 7.85395 7.77485 7.24427C7.89613 6.6346 8.19546 6.07457 8.63502 5.63502C9.07457 5.19546 9.6346 4.89613 10.2443 4.77485C10.854 4.65358 11.4859 4.71582 12.0602 4.95371C12.6345 5.19159 13.1254 5.59443 13.4707 6.11129C13.8161 6.62815 14.0004 7.23582 14.0004 7.85744C13.9995 8.69073 13.6681 9.48963 13.0789 10.0789C12.4896 10.6681 11.6907 10.9995 10.8574 11.0004Z" fill="#F5F98A"/>
</svg>
