<svg aria-hidden="true" xmlns="http://www.w3.org/2000/svg" xmlns:xlink="http://www.w3.org/1999/xlink"><symbol viewBox="0 0 22 22" fill="none" id="icon-location" xmlns="http://www.w3.org/2000/svg">
<path d="M10.8574 0C6.52504 0 3 3.37133 3 7.51367C3 9.48638 3.89919 12.1098 5.67251 15.3112C7.09667 17.8816 8.74428 20.2059 9.60123 21.3624C9.74603 21.56 9.93537 21.7207 10.1539 21.8315C10.3724 21.9423 10.6139 22 10.8589 22C11.1039 22 11.3454 21.9423 11.5639 21.8315C11.7825 21.7207 11.9718 21.56 12.1166 21.3624C12.9721 20.2059 14.6211 17.8816 16.0453 15.3112C17.8157 12.1108 18.7149 9.48736 18.7149 7.51367C18.7149 3.37133 15.1898 0 10.8574 0ZM10.8574 11.0004C10.2358 11.0004 9.62815 10.8161 9.11129 10.4707C8.59443 10.1254 8.19159 9.6345 7.95371 9.0602C7.71582 8.4859 7.65358 7.85395 7.77485 7.24427C7.89613 6.6346 8.19546 6.07457 8.63502 5.63502C9.07457 5.19546 9.6346 4.89613 10.2443 4.77485C10.854 4.65358 11.4859 4.71582 12.0602 4.95371C12.6345 5.19159 13.1254 5.59443 13.4707 6.11129C13.8161 6.62815 14.0004 7.23582 14.0004 7.85744C13.9995 8.69073 13.6681 9.48963 13.0789 10.0789C12.4896 10.6681 11.6907 10.9995 10.8574 11.0004Z" fill="currentColor"/>
</symbol><symbol viewBox="0 0 44 43" fill="none" id="icon-play" xmlns="http://www.w3.org/2000/svg">
<path d="M43.5186 21.5L6.42773 42.9145L6.42774 0.0855713L43.5186 21.5Z" fill="currentColor"/>
</symbol><symbol viewBox="0 0 23 22" fill="none" id="icon-tel" xmlns="http://www.w3.org/2000/svg">
<path d="M4.38385 21.9998C5.34526 21.9998 6.69575 21.6531 8.71804 20.5266C11.1772 19.1516 13.0793 17.8821 15.5252 15.4498C17.8834 13.1 19.031 11.5787 20.6371 8.6646C22.4515 5.37439 22.1422 3.64972 21.7965 2.91262C21.3847 2.03162 20.7769 1.5047 19.9914 0.981699C19.5452 0.690213 19.073 0.440344 18.5808 0.235261C18.5315 0.214145 18.4857 0.194011 18.4449 0.175841C18.2011 0.0663309 17.8317 -0.0991622 17.3638 0.0776257C17.0515 0.194502 16.7727 0.433657 16.3364 0.863349C15.4415 1.74336 14.2185 3.70325 13.7674 4.66576C13.4645 5.31447 13.264 5.74269 13.2635 6.22297C13.2635 6.78525 13.5472 7.21887 13.8915 7.68687C13.956 7.77477 14.02 7.85875 14.0821 7.94026C14.4569 8.43134 14.5392 8.57326 14.485 8.82666C14.3751 9.33591 13.5561 10.8519 12.21 12.191C10.864 13.5302 9.38738 14.2953 8.87467 14.4043C8.60969 14.4608 8.4644 14.3753 7.95611 13.9884C7.88322 13.9329 7.80836 13.8754 7.73005 13.818C7.20502 13.4285 6.79031 13.1531 6.23967 13.1531H6.23672C5.7575 13.1531 5.34723 13.3603 4.66755 13.7021C3.78101 14.148 1.75625 15.3516 0.868235 16.2449C0.436293 16.679 0.19545 16.956 0.0777378 17.2668C-0.0995712 17.7348 0.0673923 18.1016 0.176241 18.3472C0.194464 18.3879 0.214657 18.4326 0.235836 18.4822C0.44315 18.9721 0.695234 19.4419 0.988903 19.8857C1.51245 20.6665 2.0429 21.2711 2.92845 21.6821C3.38319 21.8965 3.88085 22.0052 4.38385 21.9998Z" fill="currentColor"/>
</symbol></svg>