<svg width="60" height="24" viewBox="0 0 60 24" fill="none" xmlns="http://www.w3.org/2000/svg">
<path d="M6.83177 24C7.41839 21.7872 8.00315 19.5762 8.59535 17.3449C8.33463 17.469 8.09067 17.5765 7.84299 17.671C6.91184 18.0232 5.9509 18.2215 4.95086 18.1974C3.89866 18.1714 2.91165 17.9157 2.03451 17.3189C1.01956 16.6295 0.401285 15.6713 0.133115 14.4852C-0.0829104 13.5252 -0.0251793 12.569 0.228092 11.6238C0.667592 9.98548 1.56522 8.62147 2.79991 7.47243C3.90611 6.44201 5.17992 5.7007 6.64368 5.29668C7.7089 5.00387 8.78717 4.92417 9.87475 5.15583C11.0219 5.40047 11.9866 5.95089 12.711 6.88309C13.2716 7.60587 13.5695 8.43614 13.6645 9.33869C13.7539 10.1838 13.6384 11.0066 13.415 11.8202C13.1133 12.9229 12.8227 14.0293 12.5285 15.1339C11.8935 17.5283 11.2752 19.9283 10.6178 22.3172C10.3589 23.2568 9.69038 23.8072 8.72385 23.9833C8.71268 23.9852 8.70337 23.9926 8.69219 23.9981C8.07391 24 7.45191 24 6.83177 24ZM3.48337 12.4652C3.4871 12.5282 3.4871 12.6283 3.50013 12.7265C3.61746 13.7032 4.12586 14.3796 5.06445 14.7151C5.5859 14.9004 6.12596 14.9115 6.6623 14.7984C7.95473 14.5242 8.93615 13.8032 9.6401 12.7024C10.0479 12.063 10.2658 11.3625 10.2211 10.5952C10.1615 9.58888 9.52464 8.7827 8.55811 8.4973C8.02736 8.33977 7.49102 8.33977 6.95654 8.46394C5.77957 8.73822 4.86147 9.39799 4.17801 10.3802C3.74968 10.9937 3.50013 11.6738 3.48337 12.4652Z" fill="white"/>
<path d="M43.4623 0.00185339C43.168 1.11011 42.8756 2.21837 42.5814 3.32477C42.5553 3.34516 42.5274 3.33589 42.4995 3.33589C41.9631 3.33589 41.425 3.3396 40.8886 3.33589C40.5106 3.33404 40.1717 3.22099 39.9147 2.93188C39.6018 2.58161 39.546 2.16462 39.654 1.7254C39.7974 1.14903 39.9575 0.574515 40.1102 0C41.2276 0 42.3449 1.13087e-07 43.4623 0.00185339Z" fill="white"/>
<path d="M59.9994 5.07816C59.9267 5.2709 59.8858 5.47291 59.8336 5.67306C59.6977 6.1753 59.5673 6.6794 59.4351 7.18349C59.4239 7.22611 59.4072 7.25021 59.355 7.24835C58.6455 7.2465 57.9341 7.2465 57.2246 7.2465C57.2134 7.2465 57.2022 7.24279 57.1836 7.24094C57.3791 6.50148 57.5747 5.76758 57.7702 5.02441C58.5133 5.02441 59.2563 5.02441 59.9994 5.02441C59.9994 5.04109 59.9994 5.05963 59.9994 5.07816Z" fill="white"/>
<path d="M19.2707 18.2015C18.6096 18.1978 17.7157 18.0236 16.8907 17.5751C15.5759 16.8616 14.805 15.7534 14.5275 14.2985C14.3561 13.3997 14.4232 12.5083 14.6597 11.628C15.088 10.0341 15.9503 8.69792 17.1365 7.56186C18.1794 6.56479 19.3824 5.82904 20.7624 5.38796C21.5632 5.13221 22.3844 4.99877 23.2262 5.02657C24.3175 5.06178 25.3343 5.34348 26.2263 5.99213C27.2338 6.72603 27.8204 7.7268 28.0402 8.94255C28.2432 10.0619 28.096 11.1517 27.7124 12.2136C27.1556 13.7574 26.2077 15.0287 24.9562 16.0814C23.891 16.9765 22.6898 17.6196 21.336 17.968C20.7382 18.1237 20.1273 18.1997 19.2707 18.2015ZM17.9168 12.4638C17.9205 12.5268 17.9205 12.6269 17.9336 12.7251C18.0509 13.7018 18.5574 14.3801 19.4942 14.7137C20.0156 14.9008 20.5557 14.912 21.092 14.7989C22.3881 14.5246 23.3714 13.8018 24.0754 12.6973C24.4814 12.0598 24.6974 11.3611 24.6527 10.5975C24.5931 9.5912 23.958 8.78502 22.9915 8.49776C22.4608 8.34023 21.9244 8.34023 21.39 8.4644C20.213 8.73869 19.2949 9.39846 18.6096 10.3788C18.1831 10.9923 17.9336 11.6724 17.9168 12.4638Z" fill="white"/>
<path d="M39.8548 18.2015C39.8455 18.1422 39.8883 18.1218 39.9144 18.0958C41.5123 16.5242 43.1101 14.9527 44.7079 13.3829C45.2871 12.814 45.8644 12.245 46.4436 11.6779C46.4902 11.6316 46.5013 11.5982 46.4697 11.5352C45.4268 9.39839 44.3858 7.2597 43.3429 5.12102C43.3298 5.09322 43.3187 5.06542 43.3075 5.04133C43.3224 5.01909 43.3392 5.02465 43.3541 5.02465C43.9314 5.02465 44.5087 5.01909 45.086 5.0265C45.6242 5.03392 46.127 5.17476 46.5721 5.48797C46.8924 5.71407 47.1401 6.00318 47.3058 6.35716C47.7267 7.25785 48.1737 8.14743 48.6057 9.04256C48.6597 9.15376 48.7137 9.2631 48.7845 9.40766C49.0117 9.17044 49.2221 8.94434 49.44 8.7275C50.2073 7.96766 50.9839 7.21708 51.7455 6.44982C52.3843 5.80859 53.1199 5.34341 54.0045 5.12473C54.2671 5.05986 54.5334 5.0228 54.8053 5.0228C55.364 5.02094 55.9226 5.0228 56.4813 5.0228C56.5 5.0228 56.5167 5.0228 56.5484 5.0228C56.3864 5.18588 56.2355 5.33785 56.0828 5.48797C54.0268 7.50804 51.9727 9.52812 49.9168 11.5482C49.8702 11.5945 49.8628 11.6297 49.8926 11.6909C50.9298 13.8166 51.9653 15.946 53.0026 18.0736C53.0212 18.1107 53.0529 18.1459 53.0231 18.1978C53.0044 18.1996 52.9821 18.2015 52.9616 18.2015C52.4029 18.2015 51.8442 18.2107 51.2855 18.1996C50.5686 18.1848 49.9354 17.9568 49.4344 17.4249C49.2612 17.2415 49.1327 17.0265 49.0247 16.8004C48.5554 15.8256 48.0824 14.8544 47.6112 13.8815C47.6075 13.8741 47.6001 13.8666 47.5945 13.8574C47.5628 13.8592 47.5498 13.8852 47.5312 13.9037C46.5889 14.8304 45.6391 15.7496 44.7061 16.6855C44.2833 17.1099 43.8308 17.4861 43.2926 17.7567C42.6967 18.0551 42.0672 18.2144 41.3968 18.2052C40.8828 18.1941 40.3707 18.2015 39.8548 18.2015Z" fill="white"/>
<path d="M27.3691 18.1977C27.438 17.9364 27.5032 17.6844 27.5703 17.4305C27.7509 16.7485 27.9334 16.0665 28.1141 15.3845C28.2966 14.6969 28.4772 14.0075 28.6597 13.3199C28.9707 12.1431 29.2836 10.9662 29.5964 9.78941C29.7305 9.28346 29.8553 8.77381 30.0024 8.27157C30.2333 7.48578 30.6803 6.82787 31.2818 6.27559C31.9224 5.68625 32.6636 5.28223 33.5259 5.11173C33.6972 5.07837 33.8685 5.05613 34.0417 5.04872C35.2038 5.00053 36.3658 5.03945 37.5298 5.02833C37.5353 5.02833 37.5409 5.03019 37.5614 5.03575C37.2672 6.14215 36.9748 7.24856 36.6824 8.35312C36.6489 8.37165 36.6135 8.36238 36.5819 8.36238C36.0921 8.36238 35.6004 8.36238 35.1107 8.36238C34.1758 8.36609 33.5165 8.822 33.0566 9.60223C32.9094 9.85057 32.8592 10.1323 32.7865 10.4065C32.4792 11.5593 32.172 12.712 31.8666 13.8648C31.5388 15.1046 31.211 16.3445 30.8851 17.5843C30.8311 17.79 30.7753 17.9939 30.7194 18.1996C29.6039 18.1977 28.494 18.1977 27.3691 18.1977Z" fill="white"/>
<path d="M38.7809 5.02547C39.3805 5.02547 39.9709 5.00879 40.5612 5.02918C41.3341 5.05512 41.8481 5.68894 41.7363 6.45064C41.6823 6.82686 41.5594 7.18825 41.4626 7.55334C40.6543 10.6094 39.8424 13.6655 39.0323 16.7215C38.9075 17.1885 38.7846 17.6574 38.6598 18.1245C38.6542 18.1485 38.6449 18.1708 38.6393 18.1949C37.522 18.1949 36.4083 18.1949 35.2891 18.1949C36.453 13.8045 37.6151 9.41774 38.7809 5.02547Z" fill="white"/>
</svg>
